<?xml version="1.0" standalone="no"?>
<!DOCTYPE svg PUBLIC "-//W3C//DTD SVG 20010904//EN"
 "http://www.w3.org/TR/2001/REC-SVG-20010904/DTD/svg10.dtd">
<svg version="1.0" xmlns="http://www.w3.org/2000/svg"
 width="474.000000pt" height="463.000000pt" viewBox="0 0 474.000000 463.000000"
 preserveAspectRatio="xMidYMid meet">

<g transform="translate(0.000000,463.000000) scale(0.100000,-0.100000)"
fill="#000000" stroke="none">
<path d="M2350 4493 c-26 -67 -85 -239 -215 -625 l-93 -276 40 -43 c23 -24 53
-68 67 -98 23 -49 26 -69 26 -161 0 -96 -3 -110 -29 -165 -36 -73 -99 -135
-174 -172 -50 -24 -69 -28 -147 -28 -78 0 -98 4 -152 29 -64 29 -137 96 -166
152 -8 16 -23 55 -32 87 -18 62 -12 58 -125 77 -36 6 -255 50 -488 96 -233 47
-427 84 -431 82 -5 -2 55 -75 133 -164 325 -369 434 -492 492 -551 l62 -63 43
16 c26 9 77 16 126 16 109 0 182 -32 257 -113 69 -75 97 -146 99 -250 1 -149
-76 -275 -210 -341 -55 -27 -76 -32 -141 -32 -42 0 -94 6 -114 13 -51 17 -60
10 -225 -176 -76 -86 -143 -161 -148 -167 -27 -29 -295 -337 -334 -384 -24
-29 -37 -52 -29 -52 21 0 891 169 1004 195 16 3 23 15 28 46 15 97 101 210
193 257 22 11 67 25 101 32 159 28 312 -54 385 -208 29 -60 32 -76 32 -157 0
-106 -23 -167 -92 -252 l-42 -52 20 -78 c23 -88 220 -683 270 -812 24 -63 34
-80 41 -68 19 34 212 592 297 861 l32 99 -40 38 c-21 21 -52 64 -67 96 -26 53
-29 68 -29 163 0 96 3 110 29 164 36 73 103 140 176 175 47 22 68 26 150 26
114 0 163 -19 241 -92 49 -45 109 -146 109 -184 0 -42 16 -47 520 -149 272
-55 501 -100 507 -100 7 0 13 4 13 8 0 10 -7 18 -180 202 -74 80 -191 208
-259 285 -69 77 -156 172 -194 211 l-69 71 -46 -14 c-66 -20 -177 -11 -244 20
-227 103 -282 423 -105 601 92 92 205 123 349 96 l71 -14 21 26 c12 14 122
139 246 279 277 312 400 457 400 470 0 5 -10 7 -22 5 -13 -3 -55 -12 -95 -21
-148 -31 -593 -116 -723 -137 -74 -12 -145 -28 -156 -35 -13 -8 -25 -29 -29
-51 -12 -63 -57 -145 -106 -193 -181 -176 -469 -121 -577 109 -24 50 -27 70
-27 157 0 87 3 107 26 156 15 31 43 74 63 96 20 22 36 48 36 58 0 30 -56 210
-169 545 -127 378 -143 420 -152 420 -4 0 -17 -26 -29 -57z m69 -1793 c203
-38 267 -305 102 -425 -166 -122 -386 -10 -386 195 0 53 5 74 27 111 33 57 88
99 148 115 57 16 49 16 109 4z"/>
</g>
</svg>
